<svg width="58" height="48" viewBox="0 0 58 48" fill="none" xmlns="http://www.w3.org/2000/svg">
<g clip-path="url(#clip0_2_2)">
<path d="M27.6594 24.8132V30.3285C27.6594 33.1207 25.3894 35.3833 22.588 35.3833H5.07134C2.27003 35.3833 0 33.1207 0 30.3285V24.8132H7.44189V28.8179C7.44189 29.6519 8.12068 30.3272 8.95611 30.3272H19.9538C20.7906 30.3272 21.468 29.6506 21.468 28.8179V24.8132H27.6594Z" fill="url(#paint0_linear_2_2)"/>
<path d="M58 15.2515V20.3504H51.7656V18.1178C51.7656 17.2838 51.0868 16.6072 50.2501 16.6072H37.7381C36.9014 16.6072 36.2226 17.2838 36.2226 18.1178V31.1964C36.2226 32.2203 37.0554 33.0504 38.0827 33.0504H51.3309C52.0554 33.0504 52.6428 33.6359 52.6428 34.358V36.1418C52.6428 36.8639 52.0554 37.4494 51.3309 37.4494H34.9212C32.1473 37.4494 29.8994 35.2089 29.8994 32.4441V15.2944C29.8994 12.9381 31.8157 11.0268 34.181 11.0268H53.7628C56.1033 11.0268 58 12.9173 58 15.2501V15.2515Z" fill="#231F20"/>
<path d="M27.6594 16.0815V24.8132H21.468V18.1164C21.468 17.2824 20.7893 16.6072 19.9538 16.6072H8.95611C8.11937 16.6072 7.44189 17.2837 7.44189 18.1164V24.8132H0V1.60685C0 0.719506 0.721867 0 1.61213 0H5.82846C6.71872 0 7.44058 0.719506 7.44058 1.60685V11.0268H22.5867C25.3881 11.0268 27.6581 13.2894 27.6581 16.0815H27.6594Z" fill="#231F20"/>
<path d="M58 20.3491V22.6482C58 25.3583 55.7966 27.5533 53.0788 27.5533H36.2213C27.397 27.5533 21.4694 28.818 21.4694 28.818V24.8119C28.6815 22.5805 36.2213 22.7119 36.2213 22.7119H50.2488C51.0868 22.7119 51.7656 22.0353 51.7656 21.2V20.3491H58Z" fill="url(#paint1_linear_2_2)"/>
<path d="M29.8981 27.7719C24.6792 28.1323 21.468 28.8179 21.468 28.8179V24.8119C24.3986 23.9037 27.3852 23.3872 29.8981 23.0918V27.7706V27.7719Z" fill="url(#paint2_linear_2_2)"/>
<path d="M50.2487 32.2633C51.2032 32.2633 51.977 31.492 51.977 30.5406C51.977 29.5892 51.2032 28.818 50.2487 28.818C49.2942 28.818 48.5204 29.5892 48.5204 30.5406C48.5204 31.492 49.2942 32.2633 50.2487 32.2633Z" fill="url(#paint3_linear_2_2)"/>
<path d="M14.9165 40.3873C16.044 40.3873 16.9581 39.4762 16.9581 38.3524C16.9581 37.2285 16.044 36.3175 14.9165 36.3175C13.7889 36.3175 12.8749 37.2285 12.8749 38.3524C12.8749 39.4762 13.7889 40.3873 14.9165 40.3873Z" fill="url(#paint4_linear_2_2)"/>
<path d="M9.38424 40.3873C10.5118 40.3873 11.4258 39.4762 11.4258 38.3524C11.4258 37.2285 10.5118 36.3175 9.38424 36.3175C8.2567 36.3175 7.34265 37.2285 7.34265 38.3524C7.34265 39.4762 8.2567 40.3873 9.38424 40.3873Z" fill="url(#paint5_linear_2_2)"/>
<path d="M0.819714 47.7229V46.9787C1.17999 47.1881 1.6682 47.3443 2.13552 47.3443C2.78037 47.3443 3.16676 47.0879 3.16676 46.5805C3.16676 46.1277 2.88872 45.8974 2.18252 45.7413C1.40191 45.5722 0.798828 45.2144 0.798828 44.409C0.798828 43.6036 1.34839 43.0637 2.4945 43.0637C2.99706 43.0637 3.36257 43.1443 3.70196 43.294V44.0043C3.36257 43.8222 2.92135 43.7207 2.50755 43.7207C1.84965 43.7207 1.57813 43.9848 1.57813 44.3361C1.57813 44.7421 1.84312 44.9047 2.54149 45.0595C3.35604 45.2417 3.94606 45.6138 3.94606 46.4999C3.94606 47.3859 3.39651 48.0013 2.16163 48.0013C1.57813 48.0013 1.16433 47.9063 0.818409 47.7242L0.819714 47.7229Z" fill="#231F20"/>
<path d="M10.4142 43.1717V46.0523C10.4142 47.3781 9.6205 48 8.55532 48C7.43532 48 6.66907 47.3911 6.66907 46.0523V43.1717H7.46273V46.0523C7.46273 46.8915 7.86348 47.3039 8.55532 47.3039C9.24716 47.3039 9.65444 46.911 9.65444 46.0523V43.1717H10.4142Z" fill="#231F20"/>
<path d="M16.6238 44.6523C16.6238 45.5384 16.0534 46.1408 14.8668 46.1408H14.2624V47.9063H13.4818V43.1717H14.8994C16.0795 43.1717 16.6225 43.7324 16.6225 44.6523H16.6238ZM15.8641 44.6523C15.8641 44.1514 15.5795 43.8404 14.9007 43.8404H14.2624V45.4707H14.8929C15.5782 45.4707 15.8628 45.1532 15.8628 44.6523H15.8641Z" fill="#231F20"/>
<path d="M22.4666 44.6523C22.4666 45.5384 21.8962 46.1408 20.7096 46.1408H20.1052V47.9063H19.3246V43.1717H20.7422C21.9223 43.1717 22.4653 43.7324 22.4653 44.6523H22.4666ZM21.7069 44.6523C21.7069 44.1514 21.4223 43.8404 20.7435 43.8404H20.1052V45.4707H20.7357C21.421 45.4707 21.7056 45.1532 21.7056 44.6523H21.7069Z" fill="#231F20"/>
<path d="M24.8815 45.5253C24.8815 43.9692 25.8239 43.0637 27.1815 43.0637C28.5391 43.0637 29.4542 43.9289 29.4542 45.5253C29.4542 47.1218 28.5117 48.0013 27.1476 48.0013C25.7835 48.0013 24.8815 47.1283 24.8815 45.5253ZM28.6279 45.5253C28.6279 44.3491 28.0653 43.7194 27.1685 43.7194C26.2717 43.7194 25.7025 44.3478 25.7025 45.5253C25.7025 46.7028 26.2795 47.3443 27.1685 47.3443C28.0574 47.3443 28.6279 46.7288 28.6279 45.5253Z" fill="#231F20"/>
<path d="M34.7697 47.9063L33.7241 46.0796H33.0727V47.9063H32.2921V43.1717H33.6627C34.8702 43.1717 35.4067 43.7324 35.4067 44.5925C35.4067 45.2547 35.0543 45.7218 34.4969 45.9378L35.643 47.9063H34.7684H34.7697ZM33.0727 45.4304H33.6706C34.3089 45.4369 34.6131 45.1129 34.6131 44.6185C34.6131 44.1241 34.322 43.8274 33.6967 43.8274H33.0727V45.4304Z" fill="#231F20"/>
<path d="M41.4531 43.8677H39.9937V47.905H39.2066V43.8677H37.7472V43.1717H41.4518V43.8677H41.4531Z" fill="#231F20"/>
<path d="M44.0586 43.1717H44.8392V47.9063H44.0586V43.1717Z" fill="#231F20"/>
<path d="M51.6598 43.1717L49.9707 47.9063H49.1091L47.4265 43.1717H48.2946L49.3532 46.3164L49.5699 47.088L49.7931 46.3164L50.8583 43.1717H51.6585H51.6598Z" fill="#231F20"/>
<path d="M57.1698 47.2298V47.9063H54.2379V43.1717H57.1019V43.8417H55.0185V45.1337H56.9452V45.8168H55.0185V47.2298H57.1698Z" fill="#231F20"/>
</g>
<defs>
<linearGradient id="paint0_linear_2_2" x1="3.56234" y1="21.7959" x2="19.8603" y2="33.1369" gradientUnits="userSpaceOnUse">
<stop stop-color="#E5C27A"/>
<stop offset="0.51" stop-color="#C9A86A"/>
<stop offset="1" stop-color="#A67C2E"/>
</linearGradient>
<linearGradient id="paint1_linear_2_2" x1="21.0634" y1="26.4148" x2="57.9424" y2="23.5075" gradientUnits="userSpaceOnUse">
<stop stop-color="#E5C27A"/>
<stop offset="0.48" stop-color="#C9A86A"/>
<stop offset="1" stop-color="#A67C2E"/>
</linearGradient>
<linearGradient id="paint2_linear_2_2" x1="30.0834" y1="25.5756" x2="21.4789" y2="26.3247" gradientUnits="userSpaceOnUse">
<stop stop-color="#E5C27A" stop-opacity="0"/>
<stop offset="0.57" stop-color="#C9A86A"/>
<stop offset="1" stop-color="#A67C2E"/>
</linearGradient>
<linearGradient id="paint3_linear_2_2" x1="50.2487" y1="28.7074" x2="50.2487" y2="32.033" gradientUnits="userSpaceOnUse">
<stop stop-color="#E5C27A"/>
<stop offset="0.51" stop-color="#C9A86A"/>
<stop offset="1" stop-color="#A67C2E"/>
</linearGradient>
<linearGradient id="paint4_linear_2_2" x1="14.9165" y1="36.3227" x2="14.9165" y2="39.9111" gradientUnits="userSpaceOnUse">
<stop stop-color="#E5C27A"/>
<stop offset="0.51" stop-color="#C9A86A"/>
<stop offset="1" stop-color="#A67C2E"/>
</linearGradient>
<linearGradient id="paint5_linear_2_2" x1="9.38424" y1="36.3227" x2="9.38424" y2="39.9111" gradientUnits="userSpaceOnUse">
<stop stop-color="#E5C27A"/>
<stop offset="0.51" stop-color="#C9A86A"/>
<stop offset="1" stop-color="#A67C2E"/>
</linearGradient>
<clipPath id="clip0_2_2">
<rect width="58" height="48" fill="white"/>
</clipPath>
</defs>
</svg>
